<svg xmlns="http://www.w3.org/2000/svg" xmlns:xlink="http://www.w3.org/1999/xlink" width="1000" zoomAndPan="magnify" viewBox="0 0 750 225" height="300" preserveAspectRatio="xMidYMid meet" version="1.0"><defs><g/><clipPath id="5c53e963cf"><rect x="0" width="626" y="0" height="225"/></clipPath></defs><g transform="matrix(1, 0, 0, 1, 55, -0.000000000000008531)"><g clip-path="url(#5c53e963cf)"><g fill="#1b1b1b" fill-opacity="1"><g transform="translate(1.295748, 170.573584)"><g><path d="M 42.84375 -115.609375 L 42.84375 -85.0625 L 97.375 -85.0625 L 97.375 -60.265625 L 42.84375 -60.265625 L 42.84375 -27.875 L 107.609375 -27.875 L 107.609375 0 L 10.65625 0 L 10.65625 -143.484375 L 107.609375 -143.484375 L 107.609375 -115.609375 Z M 42.84375 -115.609375 "/></g></g></g><g fill="#1b1b1b" fill-opacity="1"><g transform="translate(100.884387, 170.573584)"><g><path d="M 10.65625 -108.4375 L 42.640625 -108.4375 L 42.640625 -92.65625 L 44.28125 -92.65625 C 46.601562 -97.707031 50.394531 -101.972656 55.65625 -105.453125 C 60.914062 -108.941406 67.300781 -110.6875 74.8125 -110.6875 C 89.03125 -110.6875 98.867188 -106.210938 104.328125 -97.265625 C 109.796875 -88.316406 112.53125 -78.304688 112.53125 -67.234375 L 112.53125 0 L 80.5625 0 L 80.5625 -61.703125 C 80.5625 -68.804688 78.988281 -74.40625 75.84375 -78.5 C 72.695312 -82.601562 68.050781 -84.65625 61.90625 -84.65625 C 55.34375 -84.65625 50.488281 -82.503906 47.34375 -78.203125 C 44.207031 -73.898438 42.640625 -68.398438 42.640625 -61.703125 L 42.640625 0 L 10.65625 0 Z M 10.65625 -108.4375 "/></g></g></g><g fill="#1b1b1b" fill-opacity="1"><g transform="translate(207.235637, 170.573584)"><g><path d="M 63.140625 46.328125 C 58.347656 46.328125 54.617188 46.050781 51.953125 45.5 C 49.296875 44.957031 47.316406 44.410156 46.015625 43.859375 C 44.722656 43.316406 43.9375 42.976562 43.65625 42.84375 L 43.65625 17.421875 C 45.164062 17.972656 47.457031 18.484375 50.53125 18.953125 C 53.601562 19.429688 56.4375 19.671875 59.03125 19.671875 C 75.019531 19.671875 83.015625 10.722656 83.015625 -7.171875 L 83.015625 -19.671875 L 81.375 -19.671875 C 79.1875 -15.304688 75.53125 -11.035156 70.40625 -6.859375 C 65.28125 -2.691406 58.28125 -0.609375 49.40625 -0.609375 C 36.414062 -0.609375 26.195312 -5.597656 18.75 -15.578125 C 11.300781 -25.554688 7.578125 -38.878906 7.578125 -55.546875 C 7.578125 -66.753906 9.285156 -76.523438 12.703125 -84.859375 C 16.117188 -93.203125 21.003906 -99.625 27.359375 -104.125 C 33.710938 -108.632812 41.195312 -110.890625 49.8125 -110.890625 C 58.695312 -110.890625 65.734375 -108.703125 70.921875 -104.328125 C 76.117188 -99.960938 79.601562 -95.660156 81.375 -91.421875 L 83.015625 -91.421875 L 83.015625 -108.4375 L 115.203125 -108.4375 L 115.203125 -7.171875 C 115.203125 5.128906 111.71875 17.117188 104.75 28.796875 C 97.78125 40.484375 83.910156 46.328125 63.140625 46.328125 Z M 61.703125 -26.234375 C 68.804688 -26.234375 74.132812 -29.238281 77.6875 -35.25 C 81.238281 -41.269531 83.015625 -48.171875 83.015625 -55.953125 C 83.015625 -63.609375 81.269531 -70.375 77.78125 -76.25 C 74.300781 -82.125 68.941406 -85.0625 61.703125 -85.0625 C 54.316406 -85.0625 48.878906 -82.15625 45.390625 -76.34375 C 41.910156 -70.539062 40.171875 -63.742188 40.171875 -55.953125 C 40.171875 -48.171875 41.910156 -41.269531 45.390625 -35.25 C 48.878906 -29.238281 54.316406 -26.234375 61.703125 -26.234375 Z M 61.703125 -26.234375 "/></g></g></g><g fill="#1b1b1b" fill-opacity="1"><g transform="translate(316.455815, 170.573584)"><g><path d="M 14.34375 -108.4375 L 46.125 -108.4375 L 46.125 0 L 14.34375 0 Z M 30.125 -126.46875 C 25.207031 -126.46875 21.109375 -128.140625 17.828125 -131.484375 C 14.546875 -134.835938 12.90625 -138.90625 12.90625 -143.6875 C 12.90625 -148.613281 14.546875 -152.75 17.828125 -156.09375 C 21.109375 -159.445312 25.207031 -161.125 30.125 -161.125 C 35.050781 -161.125 39.1875 -159.445312 42.53125 -156.09375 C 45.875 -152.75 47.546875 -148.613281 47.546875 -143.6875 C 47.546875 -138.90625 45.875 -134.835938 42.53125 -131.484375 C 39.1875 -128.140625 35.050781 -126.46875 30.125 -126.46875 Z M 30.125 -126.46875 "/></g></g></g><g fill="#1b1b1b" fill-opacity="1"><g transform="translate(362.149231, 170.573584)"><g><path d="M 10.65625 -108.4375 L 42.640625 -108.4375 L 42.640625 -92.65625 L 44.28125 -92.65625 C 46.601562 -97.707031 50.394531 -101.972656 55.65625 -105.453125 C 60.914062 -108.941406 67.300781 -110.6875 74.8125 -110.6875 C 89.03125 -110.6875 98.867188 -106.210938 104.328125 -97.265625 C 109.796875 -88.316406 112.53125 -78.304688 112.53125 -67.234375 L 112.53125 0 L 80.5625 0 L 80.5625 -61.703125 C 80.5625 -68.804688 78.988281 -74.40625 75.84375 -78.5 C 72.695312 -82.601562 68.050781 -84.65625 61.90625 -84.65625 C 55.34375 -84.65625 50.488281 -82.503906 47.34375 -78.203125 C 44.207031 -73.898438 42.640625 -68.398438 42.640625 -61.703125 L 42.640625 0 L 10.65625 0 Z M 10.65625 -108.4375 "/></g></g></g><g fill="#1b1b1b" fill-opacity="1"><g transform="translate(468.500481, 170.573584)"><g><path d="M 59.65625 1.84375 C 48.175781 1.84375 38.503906 -0.785156 30.640625 -6.046875 C 22.785156 -11.304688 16.976562 -18.207031 13.21875 -26.75 C 9.457031 -35.289062 7.578125 -44.484375 7.578125 -54.328125 C 7.578125 -64.160156 9.457031 -73.347656 13.21875 -81.890625 C 16.976562 -90.429688 22.785156 -97.363281 30.640625 -102.6875 C 38.503906 -108.019531 48.3125 -110.6875 60.0625 -110.6875 C 75.363281 -110.6875 87.523438 -105.867188 96.546875 -96.234375 C 105.566406 -86.597656 110.078125 -72.628906 110.078125 -54.328125 L 110.078125 -45.5 L 38.328125 -45.5 L 38.328125 -43.859375 C 38.328125 -38.265625 40.273438 -33.453125 44.171875 -29.421875 C 48.066406 -25.390625 53.019531 -23.375 59.03125 -23.375 C 63.675781 -23.375 67.640625 -24.429688 70.921875 -26.546875 C 74.203125 -28.660156 76.523438 -31.492188 77.890625 -35.046875 L 109.25 -35.046875 C 106.519531 -24.253906 100.882812 -15.40625 92.34375 -8.5 C 83.800781 -1.601562 72.90625 1.84375 59.65625 1.84375 Z M 79.53125 -66 C 79.394531 -73.382812 77.515625 -78.851562 73.890625 -82.40625 C 70.273438 -85.957031 65.460938 -87.734375 59.453125 -87.734375 C 53.296875 -87.734375 48.40625 -85.816406 44.78125 -81.984375 C 41.164062 -78.160156 39.289062 -72.832031 39.15625 -66 Z M 79.53125 -66 "/></g></g></g><g fill="#1b1b1b" fill-opacity="1"><g transform="translate(569.728507, 170.573584)"><g><path d="M 34.4375 1.84375 C 29.382812 1.84375 25.21875 0.132812 21.9375 -3.28125 C 18.65625 -6.695312 17.015625 -10.863281 17.015625 -15.78125 C 17.015625 -20.695312 18.65625 -24.828125 21.9375 -28.171875 C 25.21875 -31.523438 29.382812 -33.203125 34.4375 -33.203125 C 39.488281 -33.203125 43.6875 -31.523438 47.03125 -28.171875 C 50.382812 -24.828125 52.0625 -20.695312 52.0625 -15.78125 C 52.0625 -10.863281 50.351562 -6.695312 46.9375 -3.28125 C 43.519531 0.132812 39.351562 1.84375 34.4375 1.84375 Z M 34.4375 1.84375 "/></g></g></g></g></g></svg>